<svg width="64" height="64" viewBox="0 0 24 24" fill="none" xmlns="http://www.w3.org/2000/svg">
    <defs>
        <linearGradient id="logoGradient" x1="0" y1="0" x2="24" y2="24" gradientUnits="userSpaceOnUse">
            <stop offset="0%" stop-color="#ec4899" />
            <stop offset="100%" stop-color="#8b5cf6" />
        </linearGradient>
    </defs>
    <path d="M12 4L12 4.01" stroke="url(#logoGradient)" stroke-width="3" stroke-linecap="round" stroke-linejoin="round"/>
    <path d="M20 12V22H4V12" stroke="url(#logoGradient)" stroke-width="2" stroke-linecap="round" stroke-linejoin="round"/>
    <path d="M22 7H2V12H22V7Z" stroke="url(#logoGradient)" stroke-width="2" stroke-linecap="round" stroke-linejoin="round"/>
    <path d="M12 7V12" stroke="url(#logoGradient)" stroke-width="2" stroke-linecap="round" stroke-linejoin="round"/>
    <path d="M12 7H7.5C6.11929 7 5 5.88071 5 4.5C5 3.11929 6.11929 2 7.5 2C8.88071 2 10 3.11929 10 4.5V7" stroke="url(#logoGradient)" stroke-width="2" stroke-linecap="round" stroke-linejoin="round"/>
    <path d="M12 7H16.5C17.8807 7 19 5.88071 19 4.5C19 3.11929 17.8807 2 16.5 2C15.1193 2 14 3.11929 14 4.5V7" stroke="url(#logoGradient)" stroke-width="2" stroke-linecap="round" stroke-linejoin="round"/>
</svg>
